<svg width="327" height="109" viewBox="0 0 327 109" fill="none" xmlns="http://www.w3.org/2000/svg">
<path fill-rule="evenodd" clip-rule="evenodd" d="M67.9956 69.6455C66.7107 80.8316 56.3182 78.7153 55.8647 80.1513C55.5246 81.2095 57.4897 80.9449 58.2078 80.9071C61.4578 80.9071 82.545 81.1339 83.7543 80.7938L83.9055 80.1135C83.1875 79.4333 80.6555 79.3199 79.5218 79.0176C74.9869 77.7705 72.3415 74.974 71.7369 69.6077C73.2107 70.099 73.7776 71.4972 75.1002 72.442C76.2718 73.2734 77.5189 73.9914 79.1061 74.4071C85.6061 75.9943 92.3329 71.2705 92.7108 64.6571C92.9375 60.6513 91.4259 58.3838 89.6497 55.9274C86.3241 51.2413 83.0741 46.7065 79.8619 41.9448C78.6904 40.2064 70.6409 28.4913 69.8851 28C69.1671 28.3023 52.0478 53.0553 50.1583 55.7762C48.3821 58.346 46.7949 60.2356 47.0217 64.4681C47.4374 72.7821 57.2252 77.8839 64.5188 72.5176C65.6903 71.6106 66.6351 70.0234 67.9956 69.6455ZM57.981 70.3257C62.0246 70.3257 62.7804 67.378 65.2746 65.9798C68.1089 64.4303 72.0014 64.4303 74.7601 66.1687C77.0276 67.6426 78.0479 70.6658 82.3939 70.2879C85.4549 70.0234 88.0247 67.6048 88.327 64.4303C88.6294 60.9914 86.0218 58.4216 84.5857 56.3431L69.8851 35.4448L54.4287 57.3635C53.5217 58.6483 52.0856 60.3111 51.5944 62.0117C50.3473 66.5088 53.9374 70.3257 57.981 70.3257Z" fill="#0082A3"/>
<path fill-rule="evenodd" clip-rule="evenodd" d="M69.8851 43.3809C68.9781 43.721 64.8589 50.0698 63.9897 51.3169C62.856 52.8664 55.6002 62.3896 55.7513 64.0146C56.0159 66.3955 58.7368 66.1687 59.8705 64.9972C64.9723 59.7065 74.42 59.2908 79.7485 64.9216C81.109 66.3577 83.6031 66.3955 83.9433 64.2036C84.1322 62.7675 82.2427 60.5379 81.5624 59.6309C80.6555 58.4216 70.7543 43.7588 69.8851 43.3809ZM65.6525 56.8344C71.4723 56.4943 67.5798 56.1919 74.1177 56.8722C73.7397 55.9652 70.6409 51.6193 69.8851 50.7879L67.731 53.6978C67.0508 54.6425 66.0682 55.7762 65.6525 56.8344Z" fill="#0082A3"/>
<path fill-rule="evenodd" clip-rule="evenodd" d="M92.5689 29.3242L92.6823 30.5632C99.9381 30.8261 100.429 33.8298 100.429 40.7009V67.1716C100.429 73.9676 99.9004 77.084 92.6823 77.3093C92.4556 78.6234 92.38 80.2755 94.4585 80.2755H116.679C118.38 80.2755 118.682 79.1866 118.531 77.3844C115.924 76.8962 114.563 77.3468 112.674 75.7698C111.162 74.5308 110.784 72.8412 110.671 70.288C110.406 65.5571 110.557 60.4131 110.557 55.6071C116.755 54.9313 119.249 60.5258 121.932 65.6697C123.898 69.3868 125.334 73.0665 127.072 76.7461C127.752 78.2479 128.017 80.2755 129.453 80.2755H140.903C143.095 80.2755 142.755 77.7223 142.717 77.6847C142.339 76.5959 139.959 78.7736 136.822 73.4044C134.252 68.9363 129.491 58.6484 128.243 56.7711C127.979 56.3205 127.563 55.7197 127.261 55.3443C126.732 54.6684 126.278 54.5933 125.863 53.955C134.063 51.7773 137.313 43.517 134.517 36.3455C131.796 29.4744 123.935 27.6346 114.903 27.6346H94.4585C93.3625 27.6346 92.5689 28.2353 92.5689 29.3242ZM110.557 52.5282C116.377 53.0539 120.874 51.8149 123.293 46.8586C125.598 42.2028 124.351 36.5332 120.761 33.154C118.607 31.1265 114.261 30.5257 110.557 30.9012V52.5282Z" fill="#FBFBFB"/>
<path fill-rule="evenodd" clip-rule="evenodd" d="M144.116 29.3242L144.191 30.5633C151.371 30.8261 151.938 33.6797 151.938 40.5132V67.3969C151.938 74.1929 151.334 77.084 144.229 77.3093C144.002 78.5859 143.927 80.2755 145.967 80.2755H168.075C170.153 80.2755 170.078 78.7361 169.965 77.3093C162.671 77.084 162.142 74.0802 162.142 67.1716V56.4707C162.142 55.3443 162.86 55.0439 163.427 54.5933C164.183 55.2316 165.014 56.5082 165.732 57.3718C167.773 59.7748 176.313 70.288 177.712 72.6159C180.092 76.7461 177.863 77.084 173.555 77.3468C172.912 81.064 175.52 80.2755 179.223 80.2755H194.188C198.572 80.2755 200.235 81.0264 200.273 77.91C200.273 76.8212 198.194 77.7223 194.906 75.8449C191.392 73.8174 189.805 71.4895 187.424 68.4106L174.122 51.6647C173.366 50.726 171.212 48.0977 170.834 47.2341C172.345 46.2955 178.581 39.8749 180.659 37.9976C185.497 33.7548 186.555 31.2767 192.488 30.5257C193.206 26.771 190.787 27.6346 184.287 27.6346L175.747 27.6721C174.348 27.9725 174.462 29.2116 174.462 30.0001C174.462 31.1265 176.427 30.2629 178.354 31.2767C179.79 31.9901 179.601 33.5295 178.656 34.6934L167.81 45.3568C166.866 46.2955 166.072 47.0464 165.127 47.9475C164.334 48.736 163.162 50.0502 162.142 50.6885C162.142 46.3706 161.877 40.9638 162.293 36.7961C162.746 31.9525 165.014 30.751 169.927 30.5633C170.153 29.2116 170.116 27.6346 168.188 27.6346H145.967C144.909 27.6346 144.116 28.2729 144.116 29.3242Z" fill="#FBFBFB"/>
<path fill-rule="evenodd" clip-rule="evenodd" d="M8.0309 29.1365C8.0309 30.5257 9.50474 30.5632 10.8652 30.7885C15.6646 31.577 15.8914 35.6321 15.8914 40.0626V67.6221C15.8914 70.1378 15.9292 73.4044 14.4931 75.0189C12.4146 77.4219 11.5077 76.7461 8.06869 77.3844C7.87973 79.1866 8.18206 80.2755 9.88265 80.2755H32.1414C34.1443 80.2755 34.0688 78.736 33.9176 77.3093C26.5106 77.084 26.0949 73.9676 26.0949 66.9463V55.3067C33.1618 55.3067 41.8159 56.0577 46.9554 52.3781C53.5688 47.6847 53.531 35.8198 45.5572 30.4506C41.249 27.5595 36.3362 27.6346 30.592 27.6346H9.88265C8.90008 27.6346 8.0309 28.1978 8.0309 29.1365ZM26.0949 52.1528C30.6298 52.1528 34.3333 52.4907 37.3566 49.8249C42.4961 45.2066 41.0601 36.1953 37.1676 33.0789C33.7286 30.3755 31.1589 30.8261 26.0949 30.8261V52.1528Z" fill="#FBFBFB"/>
<path d="M213.005 35.412V44.286H205.175V34.194C205.175 31.7 205.813 29.815 207.089 28.539C208.365 27.205 210.424 26.538 213.266 26.538H220.748C223.59 26.538 225.649 27.205 226.925 28.539C228.259 29.815 228.926 31.7 228.926 34.194V39.675C228.926 41.995 228.694 44.054 228.23 45.852C227.766 47.592 226.983 49.506 225.881 51.594L214.136 74.649H229.274V81H205.262V74.91L218.573 49.854C219.559 47.998 220.197 46.316 220.487 44.808C220.835 43.242 221.009 41.444 221.009 39.414V35.412C221.009 34.368 220.835 33.701 220.487 33.411C220.197 33.063 219.501 32.889 218.399 32.889H215.615C214.571 32.889 213.875 33.063 213.527 33.411C213.179 33.701 213.005 34.368 213.005 35.412ZM235.201 70.212V63.774H263.128V70.212H235.201ZM232.069 70.212V63.687L247.729 26.538H255.559L236.767 70.212H232.069ZM250.774 53.334H258.256V81H250.774V53.334ZM285.511 26.538V33.063H263.674V26.538H285.511ZM288.034 26.538V31.41L273.418 81H265.414L281.509 26.538H288.034Z" fill="#0082A3"/>
</svg>
