<?xml version="1.0" encoding="UTF-8"?>
<svg width="58px" height="58px" viewBox="0 0 58 58" version="1.1" xmlns="http://www.w3.org/2000/svg" xmlns:xlink="http://www.w3.org/1999/xlink">
    <title>controller</title>
    <g id="Page-1-Copy" stroke="none" stroke-width="1" fill="none" fill-rule="evenodd" stroke-linecap="round" stroke-linejoin="round">
        <g id="Cloudbet-Landing-Page-3" transform="translate(-67.000000, -3856.000000)" stroke="#F8932F" stroke-width="2">
            <g id="controller" transform="translate(68.000000, 3857.000000)">
                <path d="M13.0674203,-1.27897692e-13 L16.8002553,-1.27897692e-13 C22.9843187,-1.27897692e-13 27.9987604,6.88146415 27.9987604,13.0660712 L27.9987604,14.9326528" id="Path"></path>
                <line x1="11.2010028" y1="26.1321423" x2="11.2010028" y2="33.5984687" id="Path"></line>
                <line x1="7.46816783" y1="29.8653055" x2="14.9338378" y2="29.8653055" id="Path"></line>
                <path d="M41.0636829,29.8653055 C41.5790798,29.8653055 41.9968916,30.283154 41.9968916,30.7985963" id="Path"></path>
                <path d="M40.1304741,30.7985963 C40.1304741,30.283154 40.5482859,29.8653055 41.0636829,29.8653055" id="Path"></path>
                <path d="M41.0636829,31.7318871 C40.5482859,31.7318871 40.1304741,31.3140386 40.1304741,30.7985963" id="Path"></path>
                <path d="M41.9968916,30.7985963 C41.9968916,31.3140386 41.5790798,31.7318871 41.0636829,31.7318871" id="Path"></path>
                <path d="M46.6629354,24.2655607 C47.1783323,24.2655607 47.5961441,24.6834093 47.5961441,25.1988515" id="Path"></path>
                <path d="M45.7297266,25.1988515 C45.7297266,24.6834093 46.1475384,24.2655607 46.6629354,24.2655607" id="Path"></path>
                <path d="M46.6629354,26.1321423 C46.1475384,26.1321423 45.7297266,25.7142938 45.7297266,25.1988515" id="Path"></path>
                <path d="M47.5961441,25.1988515 C47.5961441,25.7142938 47.1783323,26.1321423 46.6629354,26.1321423" id="Path"></path>
                <path d="M55.9950229,35.4650503 L55.9950229,26.1321423 C55.9950229,19.946835 50.9812814,14.9326528 44.7965179,14.9326528 L11.2010028,14.9326528 C5.01623929,14.9326528 0.00249781734,19.946835 0.00249781734,26.1321423 L0.00249781734,47.5903643 C-0.0887932779,51.3268405 2.33053559,54.662628 5.91033135,55.7361264 C9.66022155,56.7242159 13.5765996,54.867267 15.1851821,51.3384602 L20.7023122,41.0647951 L35.2952085,41.0647951 L40.6580481,50.9974979 C41.7341687,53.5128838 43.9803254,55.336592 46.6629354,55.8730091 C48.9778145,56.2784414 51.3535535,55.6405845 53.154149,54.1301975 C54.9547444,52.6198104 55.9963061,50.3911453 56,48.0408327 L55.9950229,35.4650503 Z" id="Path"></path>
            </g>
        </g>
    </g>
</svg>